<svg version="1.2" xmlns="http://www.w3.org/2000/svg" viewBox="0 0 339 120" width="339" height="120"><defs><linearGradient id="P" gradientUnits="userSpaceOnUse"/><linearGradient id="g1" x2="1" href="#P" gradientTransform="matrix(0,46.87,-39.926,0,42,44.77)"><stop stop-color="#3095ff"/><stop offset=".81" stop-color="#0052d9"/></linearGradient><linearGradient id="g2" x2="1" href="#P" gradientTransform="matrix(0,46.87,-46.832,0,68.66,44.77)"><stop stop-color="#3095ff"/><stop offset=".81" stop-color="#0052d9"/></linearGradient><linearGradient id="g3" x2="1" href="#P" gradientTransform="matrix(0,46.87,-39.542,0,95.14,44.77)"><stop stop-color="#3095ff"/><stop offset=".81" stop-color="#0052d9"/></linearGradient><linearGradient id="g4" x2="1" href="#P" gradientTransform="matrix(0,46.87,-26.03,0,117.5,44.77)"><stop stop-color="#3095ff"/><stop offset=".81" stop-color="#0052d9"/></linearGradient><linearGradient id="g5" x2="1" href="#P" gradientTransform="matrix(0,46.87,-46.832,0,139.05,44.77)"><stop stop-color="#3095ff"/><stop offset=".81" stop-color="#0052d9"/></linearGradient><linearGradient id="g6" x2="1" href="#P" gradientTransform="matrix(0,46.87,-6.849,0,158.05,44.77)"><stop stop-color="#3095ff"/><stop offset=".81" stop-color="#0052d9"/></linearGradient><linearGradient id="g7" x2="1" href="#P" gradientTransform="matrix(0,46.87,-46.832,0,177.02,44.77)"><stop stop-color="#3095ff"/><stop offset=".81" stop-color="#0052d9"/></linearGradient><linearGradient id="g8" x2="1" href="#P" gradientTransform="matrix(0,46.87,-34.621,0,203.93,44.77)"><stop stop-color="#3095ff"/><stop offset=".81" stop-color="#0052d9"/></linearGradient><linearGradient id="g9" x2="1" href="#P" gradientTransform="matrix(0,46.87,-35.941,0,231.12,44.77)"><stop stop-color="#3095ff"/><stop offset=".81" stop-color="#0052d9"/></linearGradient><linearGradient id="g10" x2="1" href="#P" gradientTransform="matrix(0,46.87,-45.365,0,285.65,44.77)"><stop stop-color="#3095ff"/><stop offset=".81" stop-color="#0052d9"/></linearGradient><linearGradient id="g11" x2="1" href="#P" gradientTransform="matrix(0,46.87,-45.44,0,257.98,44.77)"><stop stop-color="#3095ff"/><stop offset=".81" stop-color="#0052d9"/></linearGradient></defs><style>.a{fill:url(#g1)}.b{fill:url(#g2)}.c{fill:url(#g3)}.d{fill:url(#g4)}.e{fill:url(#g5)}.f{fill:url(#g6)}.g{fill:url(#g7)}.h{fill:url(#g8)}.i{fill:url(#g9)}.j{fill:url(#g10)}.k{fill:url(#g11)}</style><path class="a" d="m43.6 56c-3 0-5.5 1.2-7.2 3.3l-0.2-2.7h-4.4v23.5h4.7v-12.7c0-4.6 2.3-6.8 5.6-6.8 3.4 0 5.4 1.8 5.4 6.8v12.7h4.7v-12.7c0-8.9-3.9-11.4-8.6-11.4z"/><path class="b" d="m74.9 57.6q-2.8-1.7-6.3-1.7-3.4 0-6.2 1.7-2.8 1.6-4.5 4.5-1.7 2.8-1.7 6.2 0 1 0.1 1.9h13.5 6.4q-0.3 1.1-0.8 2-1.1 1.8-2.8 2.8-1.8 1.1-4 1.1-2.1 0-3.9-1.1-0.7-0.5-1.4-1.1h-5.8q0.2 0.4 0.4 0.7 1.7 2.8 4.5 4.5 2.8 1.7 6.2 1.7 3.5 0 6.3-1.7c1.9-1.1 3.4-2.6 4.5-4.5q1.7-2.8 1.7-6.3 0-3.4-1.7-6.2-1.7-2.9-4.5-4.5zm-13.8 8.9q0.3-1.1 0.8-2.1 1.1-1.7 2.8-2.8 1.8-1 3.9-1 2.2 0 3.9 1 1.8 1.1 2.9 2.8c0.3 0.7 0.6 1.4 0.8 2.1z"/><path class="c" d="m100.4 56.6v13.1c0 3.9-2.4 6-5.3 6-3 0-5.2-2.1-5.2-6l-0.1-13.1h-4.7v13.1c0 6.4 4.3 10.6 10 10.6 5.7 0 10.1-4.2 10.1-10.6l-0.1-13.1z"/><path class="d" d="m115.4 60.3l-0.3-3.7h-4.4v23.5h4.7v-10.1c0-7.4 4-9.2 8.8-9.2l0.1-5.1c-3.1 0-6.6 1.2-8.9 4.6z"/><path class="e" d="m139.1 55.9c-6.9 0-12.5 5.6-12.5 12.4 0 6.9 5.6 12.5 12.5 12.5 6.8 0 12.4-5.6 12.4-12.5 0-6.8-5.5-12.4-12.4-12.4zm0 20.2c-4.3 0-7.8-3.5-7.8-7.8 0-4.2 3.5-7.7 7.8-7.7 4.2 0 7.7 3.5 7.7 7.7 0 4.3-3.4 7.8-7.7 7.8z"/><path fill-rule="evenodd" class="f" d="m155.7 47.8h4.7v32.3h-4.7z"/><path class="g" d="m177 55.9c-6.8 0-12.4 5.6-12.4 12.4 0 6.9 5.6 12.5 12.4 12.5 6.9 0 12.5-5.6 12.5-12.5 0-6.8-5.6-12.4-12.5-12.4zm0 20.2c-4.2 0-7.7-3.5-7.7-7.8 0-4.2 3.5-7.7 7.7-7.7 4.3 0 7.8 3.5 7.8 7.7 0 4.3-3.5 7.8-7.8 7.8z"/><path class="h" d="m210.2 57.6q-2.8-1.7-6.2-1.7-3.5 0-6.3 1.7-2.9 1.6-4.5 4.5-1.7 2.8-1.7 6.2 0 3.5 1.7 6.3c1.1 1.9 2.6 3.4 4.5 4.5q2.8 1.7 6.3 1.7 3.4 0 6.2-1.7 0.8-0.5 1.5-1-0.1 1.9-1 3.4c-0.7 1.1-1.5 1.9-2.6 2.5q-1.7 0.9-3.9 0.9-1.5 0-3.3-0.4-1.8-0.3-3.6-1-1.9-0.7-3.4-2v4q1.6 2 4.3 3 2.7 1.1 6 1.1 3.6 0 6.3-1.5 2.8-1.5 4.3-4.1 1.5-2.6 1.6-6v-9.7q0-3.4-1.7-6.2-1.7-2.9-4.5-4.5zm-0.7 16.3q-2.1 2.2-5.2 2.2-2.2 0-3.9-1.1-1.7-1-2.7-2.8c-0.6-1.2-0.9-2.4-0.9-3.9q0-2.2 1-3.9 1-1.8 2.7-2.8c1.1-0.7 2.4-1 3.7-1q2 0 3.7 1 1.6 0.9 2.6 2.7 1 1.7 1 4 0 3.4-2 5.6z"/><path class="i" d="m238.9 56.6l-7.2 16.6-6.6-16.6h-5.1l9.3 22-1.1 2.6q-0.4 0.9-1.1 1.7-0.6 0.9-1.5 1.4-1 0.6-2.6 0.6l-4.4-0.1v4.5h4.2q3.4 0 5.9-2.1 2.5-2.2 4.2-6l10.8-24.6z"/><path class="j" d="m296 62q-1.6-2.8-4.3-4.5-2.7-1.7-6-1.7-3.4 0-6.1 1.7-2.8 1.7-4.4 4.5-1.6 2.9-1.6 6.3 0 3.4 1.6 6.3 1.7 2.8 4.4 4.5 2.7 1.7 6.1 1.7 3.1 0 5.3-1.8 1.1-0.9 2-2.2v3.4h4.7v-11.7q0-3.6-1.7-6.5zm-3 6.3c0 4.5-2.9 7.8-7.2 7.8-4.4 0-7.5-3.4-7.5-7.8 0-4.4 3.5-7.7 7.5-7.7 3.9 0 7.2 3.1 7.2 7.7z"/><path class="k" d="m265 72.2q-1 1.8-2.7 2.8-1.8 1.1-3.9 1.1-2.2 0-3.9-1.1-1.8-1-2.8-2.8-1.1-1.7-1.1-3.9 0-2.1 1.1-3.9 1-1.7 2.8-2.8 1.7-1 3.9-1 2.1 0 3.9 1 1.7 1.1 2.7 2.8 0.3 0.5 0.5 1l4.5-1.4q-0.3-1-0.9-1.9-1.7-2.9-4.5-4.5-2.8-1.7-6.2-1.7-3.5 0-6.3 1.7-2.8 1.6-4.5 4.5-1.7 2.8-1.7 6.2 0 3.4 1.7 6.3 1.7 2.8 4.5 4.5 2.9 1.7 6.3 1.7 3.4 0 6.2-1.7 2.8-1.7 4.5-4.5 0.6-1 1-2l-4.5-1.4q-0.2 0.5-0.5 1z"/></svg>